<mxfile host="app.diagrams.net" agent="Mozilla/5.0 (Windows NT 10.0; Win64; x64) AppleWebKit/537.36 (KHTML, like Gecko) Chrome/133.0.0.0 Safari/537.36" version="26.0.14">
  <diagram name="Page-1" id="z5ygo8aueXD7QbDK779G">
    <mxGraphModel dx="2300" dy="2886" grid="0" gridSize="10" guides="1" tooltips="1" connect="1" arrows="1" fold="1" page="0" pageScale="1" pageWidth="850" pageHeight="1100" math="0" shadow="0">
      <root>
        <mxCell id="0" />
        <mxCell id="1" parent="0" />
        <mxCell id="PnSv_0IQH46BmFg6rcT1-12" value="" style="rounded=0;whiteSpace=wrap;html=1;direction=west;" vertex="1" parent="1">
          <mxGeometry x="-496" y="-1791" width="838" height="1499" as="geometry" />
        </mxCell>
        <mxCell id="PnSv_0IQH46BmFg6rcT1-13" value="" style="group" vertex="1" connectable="0" parent="1">
          <mxGeometry x="-442" y="-831" width="120" height="292" as="geometry" />
        </mxCell>
        <mxCell id="PnSv_0IQH46BmFg6rcT1-3" value="Update Maintenance Records" style="ellipse;whiteSpace=wrap;html=1;" vertex="1" parent="PnSv_0IQH46BmFg6rcT1-13">
          <mxGeometry x="16" y="106" width="120" height="80" as="geometry" />
        </mxCell>
        <mxCell id="PnSv_0IQH46BmFg6rcT1-61" value="Record Service History" style="ellipse;whiteSpace=wrap;html=1;" vertex="1" parent="PnSv_0IQH46BmFg6rcT1-13">
          <mxGeometry x="16" y="9" width="120" height="80" as="geometry" />
        </mxCell>
        <mxCell id="PnSv_0IQH46BmFg6rcT1-15" value="" style="group" vertex="1" connectable="0" parent="1">
          <mxGeometry x="-742" y="-799" width="30" height="200" as="geometry" />
        </mxCell>
        <mxCell id="PnSv_0IQH46BmFg6rcT1-1" value="Chief Mechanic" style="shape=umlActor;verticalLabelPosition=bottom;verticalAlign=top;html=1;outlineConnect=0;" vertex="1" parent="PnSv_0IQH46BmFg6rcT1-15">
          <mxGeometry width="30" height="60" as="geometry" />
        </mxCell>
        <mxCell id="PnSv_0IQH46BmFg6rcT1-9" style="edgeStyle=none;curved=1;rounded=0;orthogonalLoop=1;jettySize=auto;html=1;fontSize=12;startSize=8;endSize=8;" edge="1" parent="PnSv_0IQH46BmFg6rcT1-15" source="PnSv_0IQH46BmFg6rcT1-7">
          <mxGeometry relative="1" as="geometry">
            <mxPoint x="15" y="88.91308063009524" as="targetPoint" />
          </mxGeometry>
        </mxCell>
        <mxCell id="PnSv_0IQH46BmFg6rcT1-7" value="Job Mechanic" style="shape=umlActor;verticalLabelPosition=bottom;verticalAlign=top;html=1;outlineConnect=0;" vertex="1" parent="PnSv_0IQH46BmFg6rcT1-15">
          <mxGeometry y="140" width="30" height="60" as="geometry" />
        </mxCell>
        <mxCell id="PnSv_0IQH46BmFg6rcT1-32" value="" style="group" vertex="1" connectable="0" parent="1">
          <mxGeometry x="409" y="-1502" width="348.5" height="706" as="geometry" />
        </mxCell>
        <mxCell id="PnSv_0IQH46BmFg6rcT1-16" value="" style="group" vertex="1" connectable="0" parent="PnSv_0IQH46BmFg6rcT1-32">
          <mxGeometry x="80" y="144" width="30" height="200" as="geometry" />
        </mxCell>
        <mxCell id="PnSv_0IQH46BmFg6rcT1-17" value="Admin" style="shape=umlActor;verticalLabelPosition=bottom;verticalAlign=top;html=1;outlineConnect=0;" vertex="1" parent="PnSv_0IQH46BmFg6rcT1-16">
          <mxGeometry width="30" height="60" as="geometry" />
        </mxCell>
        <mxCell id="PnSv_0IQH46BmFg6rcT1-18" style="edgeStyle=none;curved=1;rounded=0;orthogonalLoop=1;jettySize=auto;html=1;fontSize=12;startSize=8;endSize=8;" edge="1" parent="PnSv_0IQH46BmFg6rcT1-16" source="PnSv_0IQH46BmFg6rcT1-19">
          <mxGeometry relative="1" as="geometry">
            <mxPoint x="15" y="88.91308063009524" as="targetPoint" />
          </mxGeometry>
        </mxCell>
        <mxCell id="PnSv_0IQH46BmFg6rcT1-19" value="Moderator" style="shape=umlActor;verticalLabelPosition=bottom;verticalAlign=top;html=1;outlineConnect=0;" vertex="1" parent="PnSv_0IQH46BmFg6rcT1-16">
          <mxGeometry y="140" width="30" height="60" as="geometry" />
        </mxCell>
        <mxCell id="PnSv_0IQH46BmFg6rcT1-33" value="Admin" style="shape=umlActor;verticalLabelPosition=bottom;verticalAlign=top;html=1;outlineConnect=0;" vertex="1" parent="1">
          <mxGeometry x="489" y="-1178" width="30" height="60" as="geometry" />
        </mxCell>
        <mxCell id="PnSv_0IQH46BmFg6rcT1-34" value="" style="edgeStyle=none;curved=1;rounded=0;orthogonalLoop=1;jettySize=auto;html=1;fontSize=12;startSize=8;endSize=8;" edge="1" parent="1" source="PnSv_0IQH46BmFg6rcT1-17" target="PnSv_0IQH46BmFg6rcT1-33">
          <mxGeometry relative="1" as="geometry" />
        </mxCell>
        <mxCell id="PnSv_0IQH46BmFg6rcT1-42" value="" style="group" vertex="1" connectable="0" parent="1">
          <mxGeometry x="-427" y="-1744" width="120" height="292" as="geometry" />
        </mxCell>
        <mxCell id="PnSv_0IQH46BmFg6rcT1-44" value="Obtain vehicle history" style="ellipse;whiteSpace=wrap;html=1;" vertex="1" parent="PnSv_0IQH46BmFg6rcT1-42">
          <mxGeometry y="212" width="120" height="80" as="geometry" />
        </mxCell>
        <mxCell id="PnSv_0IQH46BmFg6rcT1-45" value="Sign up to the system" style="ellipse;whiteSpace=wrap;html=1;" vertex="1" parent="PnSv_0IQH46BmFg6rcT1-42">
          <mxGeometry width="120" height="80" as="geometry" />
        </mxCell>
        <mxCell id="PnSv_0IQH46BmFg6rcT1-50" value="Log in" style="ellipse;whiteSpace=wrap;html=1;" vertex="1" parent="PnSv_0IQH46BmFg6rcT1-42">
          <mxGeometry y="106" width="120" height="80" as="geometry" />
        </mxCell>
        <mxCell id="PnSv_0IQH46BmFg6rcT1-46" value="" style="group" vertex="1" connectable="0" parent="1">
          <mxGeometry x="-429" y="-1331" width="120" height="326" as="geometry" />
        </mxCell>
        <mxCell id="PnSv_0IQH46BmFg6rcT1-47" value="Accept / Request ownership transfer" style="ellipse;whiteSpace=wrap;html=1;" vertex="1" parent="PnSv_0IQH46BmFg6rcT1-46">
          <mxGeometry y="229" width="120" height="80" as="geometry" />
        </mxCell>
        <mxCell id="PnSv_0IQH46BmFg6rcT1-49" value="Submit correction dispute requests" style="ellipse;whiteSpace=wrap;html=1;" vertex="1" parent="PnSv_0IQH46BmFg6rcT1-46">
          <mxGeometry x="-2" y="8" width="120" height="80" as="geometry" />
        </mxCell>
        <mxCell id="PnSv_0IQH46BmFg6rcT1-58" value="Register vehicle/s" style="ellipse;whiteSpace=wrap;html=1;" vertex="1" parent="PnSv_0IQH46BmFg6rcT1-46">
          <mxGeometry y="117" width="120" height="80" as="geometry" />
        </mxCell>
        <mxCell id="PnSv_0IQH46BmFg6rcT1-53" value="" style="edgeStyle=none;curved=1;rounded=0;orthogonalLoop=1;jettySize=auto;html=1;fontSize=12;startSize=8;endSize=8;" edge="1" parent="1" source="PnSv_0IQH46BmFg6rcT1-43" target="PnSv_0IQH46BmFg6rcT1-50">
          <mxGeometry relative="1" as="geometry" />
        </mxCell>
        <mxCell id="PnSv_0IQH46BmFg6rcT1-43" value="Forget password" style="ellipse;whiteSpace=wrap;html=1;" vertex="1" parent="1">
          <mxGeometry x="-240" y="-1638" width="120" height="80" as="geometry" />
        </mxCell>
        <mxCell id="PnSv_0IQH46BmFg6rcT1-51" value="Download/Print" style="ellipse;whiteSpace=wrap;html=1;" vertex="1" parent="1">
          <mxGeometry x="-240" y="-1532" width="120" height="80" as="geometry" />
        </mxCell>
        <mxCell id="PnSv_0IQH46BmFg6rcT1-55" value="" style="edgeStyle=none;curved=1;rounded=0;orthogonalLoop=1;jettySize=auto;html=1;fontSize=12;startSize=8;endSize=8;" edge="1" parent="1" source="PnSv_0IQH46BmFg6rcT1-44" target="PnSv_0IQH46BmFg6rcT1-51">
          <mxGeometry relative="1" as="geometry" />
        </mxCell>
        <mxCell id="PnSv_0IQH46BmFg6rcT1-57" value="Approve / Reject correction disputes" style="ellipse;whiteSpace=wrap;html=1;" vertex="1" parent="1">
          <mxGeometry x="-427" y="-511" width="120" height="80" as="geometry" />
        </mxCell>
        <mxCell id="PnSv_0IQH46BmFg6rcT1-59" value="View / Edit profile" style="ellipse;whiteSpace=wrap;html=1;" vertex="1" parent="1">
          <mxGeometry x="-429" y="-622" width="120" height="80" as="geometry" />
        </mxCell>
        <mxCell id="PnSv_0IQH46BmFg6rcT1-6" value="Login" style="ellipse;whiteSpace=wrap;html=1;" vertex="1" parent="1">
          <mxGeometry x="-429" y="-931" width="120" height="80" as="geometry" />
        </mxCell>
        <mxCell id="PnSv_0IQH46BmFg6rcT1-63" value="" style="edgeStyle=none;curved=1;rounded=0;orthogonalLoop=1;jettySize=auto;html=1;fontSize=12;startSize=8;endSize=8;" edge="1" parent="1" source="PnSv_0IQH46BmFg6rcT1-62" target="PnSv_0IQH46BmFg6rcT1-6">
          <mxGeometry relative="1" as="geometry" />
        </mxCell>
        <mxCell id="PnSv_0IQH46BmFg6rcT1-62" value="Forget password" style="ellipse;whiteSpace=wrap;html=1;" vertex="1" parent="1">
          <mxGeometry x="-240" y="-931" width="120" height="80" as="geometry" />
        </mxCell>
        <mxCell id="PnSv_0IQH46BmFg6rcT1-64" value="Accept / Reject external view requests (vehicle history)" style="ellipse;whiteSpace=wrap;html=1;" vertex="1" parent="1">
          <mxGeometry x="-427" y="-1430" width="120" height="80" as="geometry" />
        </mxCell>
        <mxCell id="PnSv_0IQH46BmFg6rcT1-31" value="" style="group" vertex="1" connectable="0" parent="1">
          <mxGeometry x="91" y="-1536" width="125" height="706" as="geometry" />
        </mxCell>
        <mxCell id="PnSv_0IQH46BmFg6rcT1-22" value="" style="group" vertex="1" connectable="0" parent="PnSv_0IQH46BmFg6rcT1-31">
          <mxGeometry x="5" y="414" width="120" height="292" as="geometry" />
        </mxCell>
        <mxCell id="PnSv_0IQH46BmFg6rcT1-23" value="Login" style="ellipse;whiteSpace=wrap;html=1;" vertex="1" parent="PnSv_0IQH46BmFg6rcT1-22">
          <mxGeometry y="106" width="120" height="80" as="geometry" />
        </mxCell>
        <mxCell id="PnSv_0IQH46BmFg6rcT1-24" value="View user / vehicle public profiles" style="ellipse;whiteSpace=wrap;html=1;" vertex="1" parent="PnSv_0IQH46BmFg6rcT1-22">
          <mxGeometry y="212" width="120" height="80" as="geometry" />
        </mxCell>
        <mxCell id="PnSv_0IQH46BmFg6rcT1-25" value="Generate / view reports" style="ellipse;whiteSpace=wrap;html=1;" vertex="1" parent="PnSv_0IQH46BmFg6rcT1-22">
          <mxGeometry width="120" height="80" as="geometry" />
        </mxCell>
        <mxCell id="PnSv_0IQH46BmFg6rcT1-26" value="" style="group" vertex="1" connectable="0" parent="PnSv_0IQH46BmFg6rcT1-31">
          <mxGeometry y="101" width="120" height="292" as="geometry" />
        </mxCell>
        <mxCell id="PnSv_0IQH46BmFg6rcT1-27" value="Add / remove moderators" style="ellipse;whiteSpace=wrap;html=1;" vertex="1" parent="PnSv_0IQH46BmFg6rcT1-26">
          <mxGeometry y="106" width="120" height="80" as="geometry" />
        </mxCell>
        <mxCell id="PnSv_0IQH46BmFg6rcT1-28" value="Add / remove Mechanics" style="ellipse;whiteSpace=wrap;html=1;" vertex="1" parent="PnSv_0IQH46BmFg6rcT1-26">
          <mxGeometry y="212" width="120" height="80" as="geometry" />
        </mxCell>
        <mxCell id="PnSv_0IQH46BmFg6rcT1-29" value="Handle mechanic data insertion disputes" style="ellipse;whiteSpace=wrap;html=1;" vertex="1" parent="PnSv_0IQH46BmFg6rcT1-26">
          <mxGeometry width="120" height="80" as="geometry" />
        </mxCell>
        <mxCell id="PnSv_0IQH46BmFg6rcT1-30" value="Handle user data insertion disputes" style="ellipse;whiteSpace=wrap;html=1;" vertex="1" parent="PnSv_0IQH46BmFg6rcT1-31">
          <mxGeometry width="120" height="80" as="geometry" />
        </mxCell>
        <mxCell id="PnSv_0IQH46BmFg6rcT1-65" value="&lt;font style=&quot;font-size: 37px;&quot;&gt;System boundary&lt;/font&gt;" style="text;html=1;align=center;verticalAlign=middle;whiteSpace=wrap;rounded=0;" vertex="1" parent="1">
          <mxGeometry x="-275" y="-274" width="370" height="30" as="geometry" />
        </mxCell>
        <mxCell id="PnSv_0IQH46BmFg6rcT1-36" value="End user" style="shape=umlActor;verticalLabelPosition=bottom;verticalAlign=top;html=1;outlineConnect=0;" vertex="1" parent="1">
          <mxGeometry x="-733" y="-1481" width="30" height="60" as="geometry" />
        </mxCell>
      </root>
    </mxGraphModel>
  </diagram>
</mxfile>
